<svg width="18" height="22" viewBox="0 0 18 22" fill="none" xmlns="http://www.w3.org/2000/svg">
<path d="M8.76917 0.258789C6.49399 0.261364 4.31277 1.12949 2.70398 2.67274C1.09519 4.21599 0.190193 6.30834 0.187509 8.49082C0.184784 10.2744 0.792111 12.0095 1.91632 13.43C1.91632 13.43 2.15037 13.7256 2.1886 13.7683L8.76917 21.2131L15.3529 13.7646C15.3872 13.7249 15.622 13.43 15.622 13.43L15.6228 13.4278C16.7464 12.0079 17.3535 10.2735 17.3508 8.49082C17.3481 6.30834 16.4431 4.21599 14.8344 2.67274C13.2256 1.12949 11.0443 0.261364 8.76917 0.258789ZM8.76917 11.4843C8.15197 11.4843 7.54863 11.3087 7.03545 10.9798C6.52227 10.6509 6.1223 10.1834 5.88611 9.63637C5.64991 9.08939 5.58812 8.4875 5.70853 7.90683C5.82893 7.32615 6.12614 6.79277 6.56257 6.37412C6.99899 5.95548 7.55503 5.67038 8.16037 5.55488C8.76571 5.43937 9.39315 5.49865 9.96337 5.72522C10.5336 5.95179 11.021 6.33547 11.3639 6.82774C11.7067 7.32002 11.8898 7.89877 11.8898 8.49082C11.8887 9.28444 11.5596 10.0453 10.9746 10.6064C10.3896 11.1676 9.59649 11.4833 8.76917 11.4843Z" fill="#171313"/>
</svg>
