<svg width="18" height="22" viewBox="0 0 18 22" fill="none" xmlns="http://www.w3.org/2000/svg">
<path d="M8.86292 0.258789C6.58774 0.261364 4.40652 1.12949 2.79773 2.67274C1.18894 4.21599 0.283943 6.30834 0.281259 8.49082C0.278534 10.2744 0.885861 12.0095 2.01007 13.43C2.01007 13.43 2.24412 13.7256 2.28235 13.7683L8.86292 21.2131L15.4466 13.7646C15.4809 13.7249 15.7158 13.43 15.7158 13.43L15.7165 13.4278C16.8402 12.0079 17.4472 10.2735 17.4446 8.49082C17.4419 6.30834 16.5369 4.21599 14.9281 2.67274C13.3193 1.12949 11.1381 0.261364 8.86292 0.258789ZM8.86292 11.4843C8.24572 11.4843 7.64238 11.3087 7.1292 10.9798C6.61602 10.6509 6.21605 10.1834 5.97986 9.63637C5.74366 9.08939 5.68187 8.4875 5.80228 7.90683C5.92268 7.32615 6.21989 6.79277 6.65632 6.37412C7.09274 5.95548 7.64878 5.67038 8.25412 5.55488C8.85946 5.43937 9.4869 5.49865 10.0571 5.72522C10.6273 5.95179 11.1147 6.33547 11.4576 6.82774C11.8005 7.32002 11.9835 7.89877 11.9835 8.49082C11.9825 9.28444 11.6534 10.0453 11.0684 10.6064C10.4834 11.1676 9.69024 11.4833 8.86292 11.4843Z" fill="#171313"/>
</svg>
