<svg width="18" height="22" viewBox="0 0 18 22" fill="none" xmlns="http://www.w3.org/2000/svg">
<path d="M8.58167 0.397949C6.30649 0.400524 4.12527 1.26865 2.51648 2.8119C0.907691 4.35515 0.00269322 6.4475 9.13001e-06 8.62998C-0.00271585 10.4135 0.604611 12.1486 1.72882 13.5692C1.72882 13.5692 1.96287 13.8648 2.0011 13.9075L8.58167 21.3522L15.1654 13.9037C15.1997 13.8641 15.4345 13.5692 15.4345 13.5692L15.4353 13.567C16.5589 12.147 17.166 10.4127 17.1633 8.62998C17.1606 6.4475 16.2556 4.35515 14.6469 2.8119C13.0381 1.26865 10.8568 0.400524 8.58167 0.397949ZM8.58167 11.6235C7.96447 11.6235 7.36113 11.4479 6.84795 11.119C6.33477 10.79 5.9348 10.3225 5.69861 9.77553C5.46241 9.22855 5.40062 8.62666 5.52103 8.04599C5.64143 7.46531 5.93864 6.93193 6.37507 6.51328C6.81149 6.09464 7.36753 5.80954 7.97287 5.69404C8.57821 5.57853 9.20565 5.63781 9.77587 5.86438C10.3461 6.09095 10.8335 6.47463 11.1764 6.9669C11.5192 7.45918 11.7023 8.03793 11.7023 8.62998C11.7012 9.4236 11.3721 10.1844 10.7871 10.7456C10.2021 11.3068 9.40899 11.6225 8.58167 11.6235Z" fill="#171313"/>
</svg>
