<svg width="21" height="17" viewBox="0 0 21 17" fill="none" xmlns="http://www.w3.org/2000/svg">
<path d="M2.94583 9.63732L9.6662 15.463C9.86486 15.6352 9.96419 15.7213 10.0782 15.7464C10.1434 15.7608 10.2108 15.7608 10.2759 15.7464C10.39 15.7213 10.4893 15.6352 10.688 15.463L17.4083 9.63732C19.4769 7.84418 19.7232 4.7227 17.9614 2.62735L17.8715 2.5204C15.8697 0.13951 12.0902 0.560381 10.6612 3.32331C10.458 3.71617 9.89616 3.71617 9.69297 3.32331C8.26398 0.560381 4.48445 0.139511 2.48266 2.5204L2.39273 2.62736C0.63101 4.72271 0.877303 7.84418 2.94583 9.63732Z" stroke="white" stroke-width="1.83893"/>
</svg>
